#N canvas 221 256 536 369 12;
#X declare -lib Gem;
#X obj 24 31 notein 1;
#X floatatom 24 55 5 0 0 0 - - -;
#X obj 116 30 notein 2;
#X floatatom 116 54 5 0 0 0 - - -;
#X floatatom 169 54 5 0 0 0 - - -;
#X obj 116 77 sel 1 2 3 4 5 6;
#X obj 116 101 bng 15 250 50 0 empty empty empty 17 7 0 10 -262144
-1 -1;
#X obj 133 111 bng 15 250 50 0 empty empty empty 17 7 0 10 -262144
-1 -1;
#X obj 150 121 bng 15 250 50 0 empty empty empty 17 7 0 10 -262144
-1 -1;
#X obj 167 131 bng 15 250 50 0 empty empty empty 17 7 0 10 -262144
-1 -1;
#X obj 184 141 bng 15 250 50 0 empty empty empty 17 7 0 10 -262144
-1 -1;
#X obj 201 151 bng 15 250 50 0 empty empty empty 17 7 0 10 -262144
-1 -1;
#X obj 201 170 s six;
#X obj 184 230 s five;
#X obj 167 208 s four;
#X obj 116 139 s one;
#X obj 133 161 s two;
#X obj 150 185 s three;
#N canvas 0 23 1440 855 gem 1;
#X obj 509 21 declare -lib Gem;
#X obj 530 107 gemwin;
#X msg 530 53 create \, 1;
#X msg 589 81 destroy;
#X obj 38 97 gemhead;
#X obj 281 155 text2d;
#N canvas 649 207 791 545 text 0;
#X obj 57 35 r one;
#X obj 99 35 r two;
#X obj 141 35 r three;
#X obj 197 35 r four;
#X obj 246 35 r five;
#X obj 295 35 r six;
#X obj 57 59 bng 15 250 50 0 empty empty empty 17 7 0 10 -262144 -1
-1;
#X obj 99 59 bng 15 250 50 0 empty empty empty 17 7 0 10 -262144 -1
-1;
#X obj 141 59 bng 15 250 50 0 empty empty empty 17 7 0 10 -262144 -1
-1;
#X obj 197 59 bng 15 250 50 0 empty empty empty 17 7 0 10 -262144 -1
-1;
#X obj 246 59 bng 15 250 50 0 empty empty empty 17 7 0 10 -262144 -1
-1;
#X obj 295 59 bng 15 250 50 0 empty empty empty 17 7 0 10 -262144 -1
-1;
#X msg 152 104 text i wanna build the wall. we need the wall;
#X msg 375 223 text facts don't care about your feelings;
#X obj 61 313 outlet;
#N canvas 637 314 450 300 sample1 0;
#X obj 48 115 delay 2500;
#X msg 48 139 text you may not be prepared for the real world;
#X obj 26 39 inlet;
#X obj 48 163 outlet;
#X msg 24 67 text if you were born in the eighties or nineties;
#X connect 0 0 1 0;
#X connect 1 0 3 0;
#X connect 2 0 4 0;
#X connect 2 0 0 0;
#X connect 4 0 3 0;
#X restore 57 88 pd sample1;
#N canvas 539 202 609 419 sample2 0;
#X obj 58 22 inlet;
#X obj 211 99 delay 2500;
#X msg 211 123 text narcissistic;
#X obj 215 161 delay 4000;
#X msg 215 185 text self interested;
#X obj 217 230 delay 6000;
#X msg 217 254 text unfocused;
#X obj 217 293 delay 7500;
#X msg 58 56 text and they're accused of being entitled;
#X obj 58 80 outlet;
#X msg 217 317 text lazy;
#X connect 0 0 8 0;
#X connect 0 0 1 0;
#X connect 0 0 3 0;
#X connect 0 0 5 0;
#X connect 0 0 7 0;
#X connect 1 0 2 0;
#X connect 2 0 9 0;
#X connect 3 0 4 0;
#X connect 4 0 9 0;
#X connect 5 0 6 0;
#X connect 6 0 9 0;
#X connect 7 0 10 0;
#X connect 8 0 9 0;
#X connect 10 0 9 0;
#X restore 119 153 pd sample2;
#N canvas 57 163 450 300 sample4 0;
#X obj 17 30 inlet;
#X msg 17 84 text and frankly if hillary clinton were a man;
#X obj 68 125 delay 3500;
#X msg 68 149 text i don't think she'd get 5% of the vote!;
#X obj 68 173 outlet;
#X connect 0 0 1 0;
#X connect 0 0 2 0;
#X connect 1 0 4 0;
#X connect 2 0 3 0;
#X connect 3 0 4 0;
#X restore 216 144 pd sample4;
#N canvas 164 78 649 364 sample5 0;
#X obj 35 38 inlet;
#X obj 35 109 outlet;
#X msg 35 70 text and i don't like the way that a stiff upper lip;
#X obj 113 106 delay 3000;
#X msg 113 130 text manning up;
#X obj 247 107 delay 4000;
#X msg 247 131 text has now become something to;
#X obj 214 173 delay 6000;
#X msg 214 197 text be offensive;
#X connect 0 0 2 0;
#X connect 0 0 3 0;
#X connect 0 0 5 0;
#X connect 0 0 7 0;
#X connect 2 0 1 0;
#X connect 3 0 4 0;
#X connect 4 0 1 0;
#X connect 5 0 6 0;
#X connect 6 0 1 0;
#X connect 7 0 8 0;
#X connect 8 0 1 0;
#X restore 308 162 pd sample5;
#X msg 217 320 text;
#X obj 266 322 loadbang;
#X connect 0 0 6 0;
#X connect 1 0 7 0;
#X connect 2 0 8 0;
#X connect 3 0 9 0;
#X connect 4 0 10 0;
#X connect 5 0 11 0;
#X connect 6 0 15 0;
#X connect 7 0 16 0;
#X connect 8 0 12 0;
#X connect 9 0 17 0;
#X connect 10 0 18 0;
#X connect 11 0 13 0;
#X connect 12 0 14 0;
#X connect 13 0 14 0;
#X connect 15 0 14 0;
#X connect 16 0 14 0;
#X connect 17 0 14 0;
#X connect 18 0 14 0;
#X connect 19 0 14 0;
#X connect 20 0 19 0;
#X restore 281 120 pd text;
#X obj 38 120 colourRGB;
#X obj 38 305 cube;
#X obj 380 170 r pluckNote;
#X floatatom 380 194 5 0 0 0 - - -;
#X msg 348 126 justify center base;
#X obj 38 2 tgl 15 0 metro empty empty 17 7 0 10 -262144 -1 -1 0 1
;
#X obj 38 22 metro 60;
#X obj 38 55 t b b;
#X obj 243 92 colorRGB 1 1 1 1;
#X obj 240 67 translateXYZ 0 0 0;
#X obj 38 144 alpha;
#X obj 38 168 depth;
#X obj 38 192 rotateXYZ;
#X obj 249 258 i;
#X floatatom 249 282 5 0 0 0 - - -;
#X obj 290 257 + 1;
#X obj 329 258 % 360;
#X obj 302 308 * 2;
#X obj 249 305 * 3;
#X obj 38 266 translateXYZ 2 3 1;
#X msg 114 350 draw fill;
#X msg 114 376 draw line;
#X msg 114 404 draw point;
#X obj 380 219 bng 15 250 50 0 random empty empty 17 7 0 10 -262144
-1 -1;
#X obj 380 264 / 100;
#X obj 380 239 random 101;
#X obj 460 264 / 100;
#X obj 460 239 random 101;
#X obj 540 264 / 100;
#X obj 540 239 random 101;
#X obj 388 348 sel 1 2 3;
#X obj 388 372 bng 15 250 50 0 empty empty empty 17 7 0 10 -262144
-1 -1;
#X obj 410 372 bng 15 250 50 0 empty empty empty 17 7 0 10 -262144
-1 -1;
#X obj 432 372 bng 15 250 50 0 empty empty empty 17 7 0 10 -262144
-1 -1;
#X obj 387 315 counter 3;
#X obj 662 176 colourRGB;
#X obj 662 203 alpha;
#X obj 662 227 depth;
#X obj 662 251 rotateXYZ;
#X obj 663 325 translateXYZ -1 -1 -0.5;
#X msg 526 356 draw fill;
#X msg 526 387 draw line;
#X msg 528 417 draw point;
#X obj 663 364 sphere;
#X floatatom 741 414 5 0 0 0 - - -;
#X obj 741 366 random 201;
#X obj 741 390 / 100;
#X obj 829 366 random 6;
#X obj 829 390 + 5;
#X obj 759 176 random 12;
#X obj 829 176 random 12;
#X obj 899 175 random 12;
#X obj 759 200 - 6;
#X obj 829 200 - 6;
#X obj 899 200 - 6;
#X obj 92 216 random 12;
#X obj 162 216 random 12;
#X obj 232 215 random 12;
#X obj 92 239 - 6;
#X obj 162 240 - 6;
#X obj 232 240 - 6;
#X obj 384 412 colourRGB;
#X obj 384 436 alpha;
#X obj 384 460 depth;
#X obj 384 484 rotateXYZ;
#X obj 384 558 translateXYZ 2 3 1;
#X obj 438 508 random 12;
#X obj 508 508 random 12;
#X obj 578 507 random 12;
#X obj 438 531 - 6;
#X obj 508 532 - 6;
#X obj 578 532 - 6;
#X obj 384 582 sphere;
#X floatatom 538 618 5 0 0 0 - - -;
#X obj 538 570 random 201;
#X obj 538 594 / 100;
#X obj 626 570 random 6;
#X obj 626 594 + 5;
#X obj 706 438 colourRGB;
#X obj 706 623 cube;
#X obj 706 462 alpha;
#X obj 706 486 depth;
#X obj 706 510 rotateXYZ;
#X obj 706 584 translateXYZ 2 3 1;
#X obj 760 534 random 12;
#X obj 830 534 random 12;
#X obj 900 533 random 12;
#X obj 760 557 - 6;
#X obj 830 558 - 6;
#X obj 900 558 - 6;
#X obj 670 19 r pot1;
#X obj 46 498 colourRGB;
#X obj 46 522 alpha;
#X obj 46 546 depth;
#X msg 163 550 draw line;
#X obj 46 570 rotateXYZ;
#X obj 46 594 sphere 20 10;
#X obj 164 519 loadbang;
#X obj 435 194 loadbang;
#X obj 670 43 / 2;
#X obj 720 43 / 2;
#X obj 770 43 / 2;
#X obj 720 19 r pot2;
#X obj 770 19 r pot3;
#X obj 670 97 pack 0 0 0;
#X msg 670 123 color \$1 \$2 \$3;
#X obj 1018 395 gemhead;
#X obj 1018 419 pix_video;
#X obj 1018 443 pix_threshold;
#X obj 1018 467 pix_texture;
#X obj 1018 491 colorRGB;
#X obj 1018 593 rectangle 2 1.5;
#X obj 1131 367 hsl 128 15 0 1 0 0 empty empty empty -2 -8 0 10 -262144
-1 -1 154 1;
#X obj 1018 515 alpha;
#X obj 1128 434 r pot1;
#X obj 1178 434 r pot2;
#X obj 1228 434 r pot3;
#X obj 1018 569 translateXYZ;
#X obj 1277 488 bng 15 250 50 0 empty random empty 17 7 0 10 -262144
-1 -1;
#X obj 1148 537 random 8;
#X obj 1218 536 random 8;
#X obj 1288 535 random 8;
#X obj 1148 560 - 4;
#X obj 1218 560 - 4;
#X obj 1288 560 - 4;
#X msg 1241 606 0;
#X obj 1129 346 / 127;
#X obj 1129 322 lfo 0.05;
#X obj 46 471 gemhead;
#X obj 1105 642 r prox;
#X floatatom 1105 666 5 0 0 0 - - -;
#X obj 1128 387 cyclone/scale 0 1 0.4 0.7;
#X obj 1231 694 bng 15 250 50 0 empty metro empty 17 7 0 10 -262144
-1 -1;
#X obj 1018 539 rotateXYZ;
#X obj 1183 728 * 2;
#X obj 1231 646 tgl 15 0 empty metro empty 17 7 0 10 -262144 -1 -1
0 1;
#X obj 1231 666 metro 100;
#X obj 1231 714 random 5;
#X obj 1231 744 random 5;
#X obj 1231 774 random 5;
#X obj 835 42 r toggle;
#X floatatom 835 66 5 0 0 0 - - -;
#X obj 670 67 *;
#X obj 720 67 *;
#X obj 770 67 *;
#X obj 1301 616 r toggle;
#X floatatom 1301 640 5 0 0 0 - - -;
#X obj 115 2 r toggle;
#X floatatom 115 26 5 0 0 0 - - -;
#X obj 1137 690 * 6;
#X obj 1105 689 * 8;
#X connect 2 0 1 0;
#X connect 3 0 1 0;
#X connect 4 0 16 0;
#X connect 4 0 7 0;
#X connect 4 0 42 0;
#X connect 4 0 68 0;
#X connect 4 0 85 0;
#X connect 6 0 5 0;
#X connect 7 0 17 0;
#X connect 9 0 10 0;
#X connect 10 0 30 0;
#X connect 11 0 5 0;
#X connect 12 0 13 0;
#X connect 13 0 14 0;
#X connect 13 0 111 0;
#X connect 14 0 4 0;
#X connect 14 1 20 0;
#X connect 15 0 5 0;
#X connect 16 0 15 0;
#X connect 17 0 18 0;
#X connect 18 0 19 0;
#X connect 19 0 26 0;
#X connect 20 0 21 0;
#X connect 20 0 22 0;
#X connect 21 0 24 0;
#X connect 21 0 25 0;
#X connect 21 0 19 2;
#X connect 21 0 45 1;
#X connect 21 0 71 1;
#X connect 21 0 102 1;
#X connect 21 0 102 2;
#X connect 21 0 102 3;
#X connect 22 0 23 0;
#X connect 23 0 20 1;
#X connect 24 0 19 3;
#X connect 24 0 45 2;
#X connect 24 0 71 3;
#X connect 25 0 19 1;
#X connect 25 0 45 3;
#X connect 25 0 71 2;
#X connect 26 0 8 0;
#X connect 27 0 8 0;
#X connect 27 0 79 0;
#X connect 28 0 8 0;
#X connect 28 0 79 0;
#X connect 29 0 8 0;
#X connect 29 0 79 1;
#X connect 30 0 32 0;
#X connect 30 0 34 0;
#X connect 30 0 36 0;
#X connect 30 0 41 0;
#X connect 30 0 52 0;
#X connect 30 0 54 0;
#X connect 30 0 56 0;
#X connect 30 0 57 0;
#X connect 30 0 58 0;
#X connect 30 0 64 0;
#X connect 30 0 63 0;
#X connect 30 0 62 0;
#X connect 30 0 73 0;
#X connect 30 0 74 0;
#X connect 30 0 75 0;
#X connect 30 0 81 0;
#X connect 30 0 83 0;
#X connect 30 0 91 0;
#X connect 30 0 92 0;
#X connect 30 0 93 0;
#X connect 31 0 7 3;
#X connect 31 0 42 1;
#X connect 31 0 68 3;
#X connect 31 0 85 3;
#X connect 32 0 31 0;
#X connect 33 0 7 2;
#X connect 33 0 42 3;
#X connect 33 0 68 1;
#X connect 33 0 85 2;
#X connect 34 0 33 0;
#X connect 35 0 7 1;
#X connect 35 0 42 2;
#X connect 35 0 68 2;
#X connect 35 0 85 1;
#X connect 36 0 35 0;
#X connect 37 0 38 0;
#X connect 37 1 39 0;
#X connect 37 2 40 0;
#X connect 38 0 27 0;
#X connect 38 0 48 0;
#X connect 39 0 28 0;
#X connect 39 0 49 0;
#X connect 40 0 29 0;
#X connect 40 0 47 0;
#X connect 41 0 37 0;
#X connect 42 0 43 0;
#X connect 43 0 44 0;
#X connect 44 0 45 0;
#X connect 45 0 46 0;
#X connect 46 0 50 0;
#X connect 47 0 50 0;
#X connect 47 0 86 0;
#X connect 48 0 50 0;
#X connect 48 0 86 0;
#X connect 49 0 50 0;
#X connect 49 0 86 0;
#X connect 51 0 50 1;
#X connect 52 0 53 0;
#X connect 53 0 51 0;
#X connect 54 0 55 0;
#X connect 55 0 50 2;
#X connect 56 0 59 0;
#X connect 57 0 60 0;
#X connect 58 0 61 0;
#X connect 59 0 46 1;
#X connect 60 0 46 2;
#X connect 61 0 46 3;
#X connect 62 0 65 0;
#X connect 63 0 66 0;
#X connect 64 0 67 0;
#X connect 65 0 26 1;
#X connect 66 0 26 2;
#X connect 67 0 26 3;
#X connect 68 0 69 0;
#X connect 69 0 70 0;
#X connect 70 0 71 0;
#X connect 71 0 72 0;
#X connect 72 0 79 0;
#X connect 73 0 76 0;
#X connect 74 0 77 0;
#X connect 75 0 78 0;
#X connect 76 0 72 1;
#X connect 77 0 72 2;
#X connect 78 0 72 3;
#X connect 80 0 79 1;
#X connect 81 0 82 0;
#X connect 82 0 80 0;
#X connect 83 0 84 0;
#X connect 84 0 79 2;
#X connect 85 0 87 0;
#X connect 87 0 88 0;
#X connect 88 0 89 0;
#X connect 89 0 90 0;
#X connect 90 0 86 0;
#X connect 91 0 94 0;
#X connect 92 0 95 0;
#X connect 93 0 96 0;
#X connect 94 0 90 1;
#X connect 95 0 90 2;
#X connect 96 0 90 3;
#X connect 97 0 106 0;
#X connect 98 0 99 0;
#X connect 99 0 100 0;
#X connect 100 0 102 0;
#X connect 101 0 103 0;
#X connect 102 0 103 0;
#X connect 104 0 101 0;
#X connect 105 0 30 0;
#X connect 106 0 149 0;
#X connect 107 0 150 0;
#X connect 108 0 111 2;
#X connect 108 0 151 0;
#X connect 109 0 107 0;
#X connect 110 0 108 0;
#X connect 111 0 112 0;
#X connect 112 0 1 0;
#X connect 113 0 114 0;
#X connect 114 0 115 0;
#X connect 115 0 116 0;
#X connect 116 0 117 0;
#X connect 117 0 120 0;
#X connect 119 0 138 0;
#X connect 120 0 140 0;
#X connect 121 0 117 3;
#X connect 122 0 117 1;
#X connect 123 0 117 2;
#X connect 124 0 118 0;
#X connect 125 0 126 0;
#X connect 125 0 127 0;
#X connect 125 0 128 0;
#X connect 126 0 129 0;
#X connect 127 0 130 0;
#X connect 128 0 131 0;
#X connect 129 0 124 1;
#X connect 130 0 124 2;
#X connect 131 0 124 3;
#X connect 132 0 124 1;
#X connect 132 0 124 2;
#X connect 132 0 124 3;
#X connect 132 0 140 1;
#X connect 132 0 140 2;
#X connect 132 0 140 3;
#X connect 133 0 119 0;
#X connect 134 0 133 0;
#X connect 135 0 98 0;
#X connect 136 0 137 0;
#X connect 137 0 156 0;
#X connect 137 0 157 0;
#X connect 138 0 117 4;
#X connect 139 0 144 0;
#X connect 139 0 145 0;
#X connect 139 0 146 0;
#X connect 140 0 124 0;
#X connect 141 0 140 2;
#X connect 142 0 143 0;
#X connect 143 0 139 0;
#X connect 144 0 140 1;
#X connect 145 0 140 2;
#X connect 146 0 140 3;
#X connect 147 0 148 0;
#X connect 148 0 149 1;
#X connect 148 0 150 1;
#X connect 148 0 151 1;
#X connect 149 0 111 0;
#X connect 150 0 111 1;
#X connect 151 0 111 2;
#X connect 152 0 153 0;
#X connect 153 0 142 0;
#X connect 154 0 155 0;
#X connect 155 0 12 0;
#X connect 156 0 118 2;
#X connect 157 0 118 1;
#X restore 442 32 pd gem;
#X obj 24 78 s pluckNote;
#X floatatom 251 57 5 0 0 0 - - -;
#X obj 251 33 ctlin 0 3;
#X obj 251 80 / 127;
#X obj 251 104 s pot1;
#X floatatom 321 57 5 0 0 0 - - -;
#X obj 321 80 / 127;
#X obj 321 33 ctlin 0 4;
#X floatatom 251 157 5 0 0 0 - - -;
#X obj 251 180 / 127;
#X obj 251 133 ctlin 0 5;
#X obj 321 104 s pot2;
#X obj 251 204 s pot3;
#X floatatom 321 157 5 0 0 0 - - -;
#X obj 321 180 / 127;
#X obj 321 133 ctlin 0 6;
#X obj 321 204 s prox;
#X floatatom 391 157 5 0 0 0 - - -;
#X obj 391 133 ctlin 0 7;
#X obj 391 204 s toggle;
#X obj 391 180 / 127;
#X connect 0 0 1 0;
#X connect 1 0 19 0;
#X connect 2 0 3 0;
#X connect 2 1 4 0;
#X connect 3 0 5 0;
#X connect 5 0 6 0;
#X connect 5 1 7 0;
#X connect 5 2 8 0;
#X connect 5 3 9 0;
#X connect 5 4 10 0;
#X connect 5 5 11 0;
#X connect 6 0 15 0;
#X connect 7 0 16 0;
#X connect 8 0 17 0;
#X connect 9 0 14 0;
#X connect 10 0 13 0;
#X connect 11 0 12 0;
#X connect 20 0 22 0;
#X connect 21 0 20 0;
#X connect 22 0 23 0;
#X connect 24 0 25 0;
#X connect 25 0 30 0;
#X connect 26 0 24 0;
#X connect 27 0 28 0;
#X connect 28 0 31 0;
#X connect 29 0 27 0;
#X connect 32 0 33 0;
#X connect 33 0 35 0;
#X connect 34 0 32 0;
#X connect 36 0 39 0;
#X connect 37 0 36 0;
#X connect 39 0 38 0;
