#N canvas 164 208 656 369 12;
#X declare -lib Gem;
#X obj 24 31 notein 1;
#X floatatom 24 55 5 0 0 0 - - -;
#X obj 116 30 notein 2;
#X floatatom 116 54 5 0 0 0 - - -;
#X floatatom 169 54 5 0 0 0 - - -;
#X obj 116 101 bng 15 250 50 0 empty empty empty 17 7 0 10 -262144
-1 -1;
#X obj 133 111 bng 15 250 50 0 empty empty empty 17 7 0 10 -262144
-1 -1;
#X obj 150 121 bng 15 250 50 0 empty empty empty 17 7 0 10 -262144
-1 -1;
#X obj 167 131 bng 15 250 50 0 empty empty empty 17 7 0 10 -262144
-1 -1;
#X obj 184 141 bng 15 250 50 0 empty empty empty 17 7 0 10 -262144
-1 -1;
#X obj 201 151 bng 15 250 50 0 empty empty empty 17 7 0 10 -262144
-1 -1;
#X obj 201 170 s six;
#X obj 184 230 s five;
#X obj 167 208 s four;
#X obj 116 139 s one;
#X obj 133 161 s two;
#X obj 150 185 s three;
#N canvas 0 23 1440 855 gem 1;
#X obj 509 21 declare -lib Gem;
#X obj 530 107 gemwin;
#X msg 530 53 create \, 1;
#X msg 589 81 destroy;
#X obj 38 70 gemhead;
#X obj 374 183 text2d;
#N canvas -8 -592 791 545 text 1;
#X obj 57 35 r one;
#X obj 99 35 r two;
#X obj 141 35 r three;
#X obj 197 35 r four;
#X obj 246 35 r five;
#X obj 295 35 r six;
#X obj 57 59 bng 15 250 50 0 empty empty empty 17 7 0 10 -262144 -1
-1;
#X obj 99 59 bng 15 250 50 0 empty empty empty 17 7 0 10 -262144 -1
-1;
#X obj 141 59 bng 15 250 50 0 empty empty empty 17 7 0 10 -262144 -1
-1;
#X obj 197 59 bng 15 250 50 0 empty empty empty 17 7 0 10 -262144 -1
-1;
#X obj 246 59 bng 15 250 50 0 empty empty empty 17 7 0 10 -262144 -1
-1;
#X obj 295 59 bng 15 250 50 0 empty empty empty 17 7 0 10 -262144 -1
-1;
#X msg 152 104 text i wanna build the wall. we need the wall;
#X msg 375 223 text facts don't care about your feelings;
#X obj 61 313 outlet;
#N canvas 637 314 450 300 sample1 0;
#X obj 48 115 delay 2500;
#X msg 48 139 text you may not be prepared for the real world;
#X obj 26 39 inlet;
#X obj 48 163 outlet;
#X msg 24 67 text if you were born in the eighties or nineties;
#X connect 0 0 1 0;
#X connect 1 0 3 0;
#X connect 2 0 4 0;
#X connect 2 0 0 0;
#X connect 4 0 3 0;
#X restore 57 88 pd sample1;
#N canvas 539 202 609 419 sample2 0;
#X obj 58 22 inlet;
#X obj 211 99 delay 2500;
#X msg 211 123 text narcissistic;
#X obj 215 161 delay 4000;
#X msg 215 185 text self interested;
#X obj 217 230 delay 6000;
#X msg 217 254 text unfocused;
#X obj 217 293 delay 7500;
#X msg 58 56 text and they're accused of being entitled;
#X obj 58 80 outlet;
#X msg 217 317 text lazy;
#X connect 0 0 8 0;
#X connect 0 0 1 0;
#X connect 0 0 3 0;
#X connect 0 0 5 0;
#X connect 0 0 7 0;
#X connect 1 0 2 0;
#X connect 2 0 9 0;
#X connect 3 0 4 0;
#X connect 4 0 9 0;
#X connect 5 0 6 0;
#X connect 6 0 9 0;
#X connect 7 0 10 0;
#X connect 8 0 9 0;
#X connect 10 0 9 0;
#X restore 119 153 pd sample2;
#N canvas 57 163 450 300 sample4 0;
#X obj 17 30 inlet;
#X msg 17 84 text and frankly if hillary clinton were a man;
#X obj 68 125 delay 3500;
#X msg 68 149 text i don't think she'd get 5% of the vote!;
#X obj 68 173 outlet;
#X connect 0 0 1 0;
#X connect 0 0 2 0;
#X connect 1 0 4 0;
#X connect 2 0 3 0;
#X connect 3 0 4 0;
#X restore 216 144 pd sample4;
#N canvas 164 78 649 364 sample5 0;
#X obj 35 38 inlet;
#X obj 35 109 outlet;
#X msg 35 70 text and i don't like the way that a stiff upper lip;
#X obj 113 106 delay 3000;
#X msg 113 130 text manning up;
#X obj 247 107 delay 4000;
#X msg 247 131 text has now become something to;
#X obj 214 173 delay 6000;
#X msg 214 197 text be offensive;
#X connect 0 0 2 0;
#X connect 0 0 3 0;
#X connect 0 0 5 0;
#X connect 0 0 7 0;
#X connect 2 0 1 0;
#X connect 3 0 4 0;
#X connect 4 0 1 0;
#X connect 5 0 6 0;
#X connect 6 0 1 0;
#X connect 7 0 8 0;
#X connect 8 0 1 0;
#X restore 308 162 pd sample5;
#X msg 217 320 text;
#X obj 266 322 loadbang;
#X obj 337 35 r seven;
#X obj 396 35 r eight;
#X obj 455 35 r nine;
#X obj 337 59 bng 15 250 50 0 empty empty empty 17 7 0 10 -262144 -1
-1;
#X obj 396 59 bng 15 250 50 0 empty empty empty 17 7 0 10 -262144 -1
-1;
#X obj 455 59 bng 15 250 50 0 empty empty empty 17 7 0 10 -262144 -1
-1;
#X msg 337 79 text the millenials don't get off the couch very often
;
#X msg 457 185 text nobody understands me;
#N canvas 145 23 450 300 sample8 0;
#X obj 60 131 delay 3500;
#X msg 60 155 text and its interaction with the world that surrounds
you;
#X msg 11 83 text because the thing that forms your shape is your mind
;
#X obj 20 39 inlet;
#X obj 60 179 outlet;
#X connect 0 0 1 0;
#X connect 1 0 4 0;
#X connect 2 0 4 0;
#X connect 3 0 2 0;
#X connect 3 0 0 0;
#X restore 380 139 pd sample8;
#X text 320 283 some of these subtitles are timed to show in sections
;
#X connect 0 0 6 0;
#X connect 1 0 7 0;
#X connect 2 0 8 0;
#X connect 3 0 9 0;
#X connect 4 0 10 0;
#X connect 5 0 11 0;
#X connect 6 0 15 0;
#X connect 7 0 16 0;
#X connect 8 0 12 0;
#X connect 9 0 17 0;
#X connect 10 0 18 0;
#X connect 11 0 13 0;
#X connect 12 0 14 0;
#X connect 13 0 14 0;
#X connect 15 0 14 0;
#X connect 16 0 14 0;
#X connect 17 0 14 0;
#X connect 18 0 14 0;
#X connect 19 0 14 0;
#X connect 20 0 19 0;
#X connect 21 0 24 0;
#X connect 22 0 25 0;
#X connect 23 0 26 0;
#X connect 24 0 27 0;
#X connect 25 0 29 0;
#X connect 26 0 28 0;
#X connect 27 0 14 0;
#X connect 28 0 14 0;
#X connect 29 0 14 0;
#X restore 374 148 pd text;
#X obj 38 121 colourRGB;
#X obj 38 305 cube;
#X obj 379 254 r pluckNote;
#X floatatom 379 278 5 0 0 0 - - -;
#X msg 441 154 justify center base;
#X obj 38 2 tgl 15 0 metro empty empty 17 7 0 10 -262144 -1 -1 0 1
;
#X obj 38 46 t b b;
#X obj 336 120 colorRGB 1 1 1 1;
#X obj 336 95 translateXYZ 0 0 0;
#X obj 38 144 alpha;
#X obj 38 168 depth;
#X obj 38 192 rotateXYZ;
#X obj 205 282 i;
#X floatatom 205 306 5 0 0 0 - - -;
#X obj 246 281 + 1;
#X obj 285 282 % 360;
#X obj 250 306 * 2;
#X obj 169 306 * 3;
#X obj 38 266 translateXYZ 2 3 1;
#X msg 169 444 draw fill;
#X msg 169 470 draw line;
#X msg 169 498 draw point;
#X obj 379 302 bng 15 250 50 0 random empty empty 17 7 0 10 -262144
-1 -1;
#X obj 379 348 / 100;
#X obj 379 323 random 101;
#X obj 459 348 / 100;
#X obj 459 323 random 101;
#X obj 539 348 / 100;
#X obj 539 323 random 101;
#X obj 379 422 sel 1 2 3;
#X obj 379 446 bng 15 250 50 0 empty empty empty 17 7 0 10 -262144
-1 -1;
#X obj 401 446 bng 15 250 50 0 empty empty empty 17 7 0 10 -262144
-1 -1;
#X obj 423 446 bng 15 250 50 0 empty empty empty 17 7 0 10 -262144
-1 -1;
#X obj 379 399 counter 3;
#X obj 711 310 colourRGB;
#X obj 711 337 alpha;
#X obj 711 361 depth;
#X obj 711 385 rotateXYZ;
#X obj 711 409 translateXYZ -1 -1 -0.5;
#X msg 605 471 draw fill;
#X msg 605 502 draw line;
#X msg 607 532 draw point;
#X obj 711 434 sphere;
#X floatatom 760 483 5 0 0 0 - - -;
#X obj 760 435 random 201;
#X obj 760 459 / 100;
#X obj 848 435 random 6;
#X obj 848 459 + 5;
#X obj 789 348 random 12;
#X obj 859 348 random 12;
#X obj 929 347 random 12;
#X obj 789 369 - 6;
#X obj 859 369 - 6;
#X obj 929 369 - 6;
#X obj 106 214 random 12;
#X obj 176 214 random 12;
#X obj 246 213 random 12;
#X obj 92 239 - 6;
#X obj 162 240 - 6;
#X obj 232 240 - 6;
#X obj 363 556 colourRGB;
#X obj 363 580 alpha;
#X obj 363 604 depth;
#X obj 363 627 rotateXYZ;
#X obj 363 652 translateXYZ 2 3 1;
#X obj 437 592 random 12;
#X obj 510 591 random 12;
#X obj 584 592 random 12;
#X obj 437 615 - 6;
#X obj 507 616 - 6;
#X obj 577 616 - 6;
#X obj 363 676 sphere;
#X floatatom 537 702 5 0 0 0 - - -;
#X obj 537 654 random 201;
#X obj 537 678 / 100;
#X obj 625 654 random 6;
#X obj 625 678 + 5;
#X obj 750 619 colourRGB;
#X obj 751 740 cube;
#X obj 750 645 alpha;
#X obj 750 669 depth;
#X obj 750 693 rotateXYZ;
#X obj 750 717 translateXYZ 2 3 1;
#X obj 824 670 random 12;
#X obj 894 670 random 12;
#X obj 964 669 random 12;
#X obj 824 693 - 6;
#X obj 894 694 - 6;
#X obj 964 694 - 6;
#X obj 670 19 r pot1;
#X obj 60 642 colourRGB;
#X obj 60 666 alpha;
#X obj 60 690 depth;
#X msg 101 575 draw line;
#X obj 60 714 rotateXYZ;
#X obj 60 738 sphere 20 10;
#X obj 101 544 loadbang;
#X obj 434 278 loadbang;
#X obj 670 43 / 2;
#X obj 720 43 / 2;
#X obj 770 43 / 2;
#X obj 720 19 r pot2;
#X obj 770 19 r pot3;
#X obj 670 97 pack 0 0 0;
#X msg 670 123 color \$1 \$2 \$3;
#X obj 1018 395 gemhead;
#X obj 1018 419 pix_video;
#X obj 1018 443 pix_threshold;
#X obj 1018 467 pix_texture;
#X obj 1018 491 colorRGB;
#X obj 1018 593 rectangle 2 1.5;
#X obj 1131 367 hsl 128 15 0 1 0 0 empty empty empty -2 -8 0 10 -262144
-1 -1 12600 1;
#X obj 1018 515 alpha;
#X obj 1128 434 r pot1;
#X obj 1178 434 r pot2;
#X obj 1228 434 r pot3;
#X obj 1018 569 translateXYZ;
#X obj 1246 515 bng 15 250 50 0 empty random empty 17 7 0 10 -262144
-1 -1;
#X obj 1148 537 random 8;
#X obj 1218 536 random 8;
#X obj 1288 535 random 8;
#X obj 1148 560 - 4;
#X obj 1218 560 - 4;
#X obj 1288 560 - 4;
#X msg 1241 606 0;
#X obj 1129 346 / 127;
#X obj 1129 322 lfo 0.05;
#X obj 60 615 gemhead;
#X obj 1105 642 r prox;
#X floatatom 1105 666 5 0 0 0 - - -;
#X obj 1128 387 cyclone/scale 0 1 0.4 0.7;
#X obj 1231 694 bng 15 250 50 0 empty metro empty 17 7 0 10 -262144
-1 -1;
#X obj 1018 539 rotateXYZ;
#X obj 1183 728 * 2;
#X obj 1231 646 tgl 15 0 empty metro empty 17 7 0 10 -262144 -1 -1
0 1;
#X obj 1231 666 metro 100;
#X obj 1231 714 random 5;
#X obj 1231 744 random 5;
#X obj 1231 774 random 5;
#X obj 835 42 r toggle;
#X floatatom 835 66 5 0 0 0 - - -;
#X obj 670 67 *;
#X obj 720 67 *;
#X obj 770 67 *;
#X obj 1301 616 r toggle;
#X floatatom 1301 640 5 0 0 0 - - -;
#X obj 115 2 r toggle;
#X floatatom 115 26 5 0 0 0 - - -;
#X obj 1137 690 * 6;
#X obj 1105 689 * 8;
#X obj 917 24 r arpNote;
#X floatatom 917 48 5 0 0 0 - - -;
#X obj 917 71 bng 15 250 50 0 random empty empty 17 7 0 10 -262144
-1 -1;
#X obj 917 93 random 101;
#X obj 997 93 random 101;
#X obj 1077 93 random 101;
#X obj 178 605 tgl 15 0 metro empty empty 17 7 0 10 -262144 -1 -1 0
1;
#X obj 178 658 t b b;
#X obj 180 691 i;
#X floatatom 180 715 5 0 0 0 - - -;
#X obj 221 690 + 1;
#X obj 260 691 % 360;
#X obj 233 741 * 2;
#X obj 180 738 * 3;
#X obj 178 625 metro 100;
#X obj 38 22 metro 30;
#X text 54 773 large sphere that constantly turns slowly;
#X text 1107 489 webcame footage that jitters at random;
#X text 995 42 pots and arp change background colours epilepsy warning
when arp is on lol;
#X text 88 47 a metronome to move the small shapes;
#X text 438 182 <- subtitles triggered on each vocal sample;
#X obj 917 118 / 200;
#X obj 997 118 / 200;
#X obj 1078 119 / 200;
#X obj 908 602 bng 15 250 50 0 empty random empty 17 7 0 10 -262144
-1 -1;
#X obj 877 309 bng 15 250 50 0 empty random empty 17 7 0 10 -262144
-1 -1;
#X obj 509 548 bng 15 250 50 0 empty random empty 17 7 0 10 -262144
-1 -1;
#X obj 179 163 bng 15 250 50 0 empty random empty 17 7 0 10 -262144
-1 -1;
#X obj 459 372 s rgb2;
#X obj 539 372 s rgb3;
#X obj 379 372 s rgb1;
#X obj 750 595 r rgb1;
#X obj 803 595 r rgb2;
#X obj 858 595 r rgb3;
#X obj 711 286 r rgb1;
#X obj 764 286 r rgb2;
#X obj 819 286 r rgb3;
#X obj 111 91 r rgb1;
#X obj 164 91 r rgb2;
#X obj 219 91 r rgb3;
#X obj 363 522 r rgb1;
#X obj 416 522 r rgb2;
#X obj 471 522 r rgb3;
#X obj 169 329 s xyz1;
#X obj 220 329 s xyz2;
#X obj 270 329 s xyz3;
#X obj 310 556 r xyz1;
#X obj 310 579 r xyz2;
#X obj 310 602 r xyz3;
#X obj 657 309 r xyz1;
#X obj 657 332 r xyz2;
#X obj 657 355 r xyz3;
#X obj 113 118 r xyz1;
#X obj 113 141 r xyz2;
#X obj 113 164 r xyz3;
#X text 464 246 <- pluck notes randomly move and change colour of small
cubes and spheres and webcam;
#X text 1129 294 LFO slowly changes the transparancy;
#X connect 2 0 1 0;
#X connect 3 0 1 0;
#X connect 4 0 15 0;
#X connect 4 0 7 0;
#X connect 4 0 41 0;
#X connect 4 0 67 0;
#X connect 4 0 84 0;
#X connect 6 0 5 0;
#X connect 7 0 16 0;
#X connect 9 0 10 0;
#X connect 10 0 29 0;
#X connect 11 0 5 0;
#X connect 12 0 172 0;
#X connect 13 0 4 0;
#X connect 13 1 19 0;
#X connect 13 1 110 0;
#X connect 14 0 5 0;
#X connect 15 0 14 0;
#X connect 16 0 17 0;
#X connect 17 0 18 0;
#X connect 18 0 25 0;
#X connect 19 0 20 0;
#X connect 19 0 21 0;
#X connect 20 0 23 0;
#X connect 20 0 24 0;
#X connect 20 0 201 0;
#X connect 21 0 22 0;
#X connect 22 0 19 1;
#X connect 23 0 202 0;
#X connect 24 0 200 0;
#X connect 25 0 8 0;
#X connect 26 0 8 0;
#X connect 26 0 78 0;
#X connect 27 0 8 0;
#X connect 27 0 78 0;
#X connect 28 0 8 0;
#X connect 28 0 78 1;
#X connect 29 0 31 0;
#X connect 29 0 33 0;
#X connect 29 0 35 0;
#X connect 29 0 40 0;
#X connect 30 0 187 0;
#X connect 31 0 30 0;
#X connect 32 0 185 0;
#X connect 33 0 32 0;
#X connect 34 0 186 0;
#X connect 35 0 34 0;
#X connect 36 0 37 0;
#X connect 36 1 38 0;
#X connect 36 2 39 0;
#X connect 37 0 26 0;
#X connect 37 0 47 0;
#X connect 38 0 27 0;
#X connect 38 0 48 0;
#X connect 39 0 28 0;
#X connect 39 0 46 0;
#X connect 40 0 36 0;
#X connect 41 0 42 0;
#X connect 42 0 43 0;
#X connect 43 0 44 0;
#X connect 44 0 45 0;
#X connect 45 0 49 0;
#X connect 46 0 49 0;
#X connect 46 0 85 0;
#X connect 47 0 49 0;
#X connect 47 0 85 0;
#X connect 48 0 49 0;
#X connect 48 0 85 0;
#X connect 50 0 49 1;
#X connect 51 0 52 0;
#X connect 52 0 50 0;
#X connect 53 0 54 0;
#X connect 54 0 49 2;
#X connect 55 0 58 0;
#X connect 56 0 59 0;
#X connect 57 0 60 0;
#X connect 58 0 45 1;
#X connect 59 0 45 2;
#X connect 60 0 45 3;
#X connect 61 0 64 0;
#X connect 62 0 65 0;
#X connect 63 0 66 0;
#X connect 64 0 25 1;
#X connect 65 0 25 2;
#X connect 66 0 25 3;
#X connect 67 0 68 0;
#X connect 68 0 69 0;
#X connect 69 0 70 0;
#X connect 70 0 71 0;
#X connect 71 0 78 0;
#X connect 72 0 75 0;
#X connect 73 0 76 0;
#X connect 74 0 77 0;
#X connect 75 0 71 1;
#X connect 76 0 71 2;
#X connect 77 0 71 3;
#X connect 79 0 78 1;
#X connect 80 0 81 0;
#X connect 81 0 79 0;
#X connect 82 0 83 0;
#X connect 83 0 78 2;
#X connect 84 0 86 0;
#X connect 86 0 87 0;
#X connect 87 0 88 0;
#X connect 88 0 89 0;
#X connect 89 0 85 0;
#X connect 90 0 93 0;
#X connect 91 0 94 0;
#X connect 92 0 95 0;
#X connect 93 0 89 1;
#X connect 94 0 89 2;
#X connect 95 0 89 3;
#X connect 96 0 105 0;
#X connect 97 0 98 0;
#X connect 98 0 99 0;
#X connect 99 0 101 0;
#X connect 100 0 102 0;
#X connect 101 0 102 0;
#X connect 103 0 100 0;
#X connect 104 0 29 0;
#X connect 105 0 148 0;
#X connect 106 0 149 0;
#X connect 107 0 110 2;
#X connect 107 0 150 0;
#X connect 108 0 106 0;
#X connect 109 0 107 0;
#X connect 110 0 111 0;
#X connect 111 0 1 0;
#X connect 112 0 113 0;
#X connect 113 0 114 0;
#X connect 114 0 115 0;
#X connect 115 0 116 0;
#X connect 116 0 119 0;
#X connect 118 0 137 0;
#X connect 119 0 139 0;
#X connect 120 0 116 3;
#X connect 121 0 116 1;
#X connect 122 0 116 2;
#X connect 123 0 117 0;
#X connect 124 0 125 0;
#X connect 124 0 126 0;
#X connect 124 0 127 0;
#X connect 125 0 128 0;
#X connect 126 0 129 0;
#X connect 127 0 130 0;
#X connect 128 0 123 1;
#X connect 129 0 123 2;
#X connect 130 0 123 3;
#X connect 131 0 123 1;
#X connect 131 0 123 2;
#X connect 131 0 123 3;
#X connect 131 0 139 1;
#X connect 131 0 139 2;
#X connect 131 0 139 3;
#X connect 132 0 118 0;
#X connect 133 0 132 0;
#X connect 134 0 97 0;
#X connect 135 0 136 0;
#X connect 136 0 155 0;
#X connect 136 0 156 0;
#X connect 137 0 116 4;
#X connect 138 0 143 0;
#X connect 138 0 144 0;
#X connect 138 0 145 0;
#X connect 139 0 123 0;
#X connect 140 0 139 2;
#X connect 141 0 142 0;
#X connect 142 0 138 0;
#X connect 143 0 139 1;
#X connect 144 0 139 2;
#X connect 145 0 139 3;
#X connect 146 0 147 0;
#X connect 147 0 148 1;
#X connect 147 0 149 1;
#X connect 147 0 150 1;
#X connect 148 0 110 0;
#X connect 149 0 110 1;
#X connect 150 0 110 2;
#X connect 151 0 152 0;
#X connect 152 0 141 0;
#X connect 153 0 154 0;
#X connect 154 0 12 0;
#X connect 155 0 117 2;
#X connect 156 0 117 1;
#X connect 157 0 158 0;
#X connect 158 0 159 0;
#X connect 159 0 160 0;
#X connect 159 0 161 0;
#X connect 159 0 162 0;
#X connect 160 0 178 0;
#X connect 161 0 179 0;
#X connect 162 0 180 0;
#X connect 163 0 171 0;
#X connect 164 1 165 0;
#X connect 165 0 166 0;
#X connect 165 0 167 0;
#X connect 166 0 169 0;
#X connect 166 0 170 0;
#X connect 166 0 101 3;
#X connect 167 0 168 0;
#X connect 168 0 165 1;
#X connect 169 0 101 2;
#X connect 170 0 101 1;
#X connect 171 0 164 0;
#X connect 172 0 13 0;
#X connect 178 0 110 0;
#X connect 179 0 110 1;
#X connect 180 0 110 2;
#X connect 181 0 90 0;
#X connect 181 0 91 0;
#X connect 181 0 92 0;
#X connect 182 0 55 0;
#X connect 182 0 56 0;
#X connect 182 0 57 1;
#X connect 182 0 53 0;
#X connect 182 0 51 0;
#X connect 183 0 72 0;
#X connect 183 0 73 0;
#X connect 183 0 74 0;
#X connect 183 0 80 0;
#X connect 183 0 82 0;
#X connect 184 0 61 0;
#X connect 184 0 62 0;
#X connect 184 0 63 0;
#X connect 188 0 84 3;
#X connect 189 0 84 2;
#X connect 190 0 84 1;
#X connect 191 0 41 1;
#X connect 192 0 41 3;
#X connect 193 0 41 2;
#X connect 194 0 7 3;
#X connect 195 0 7 2;
#X connect 196 0 7 1;
#X connect 197 0 67 3;
#X connect 198 0 67 1;
#X connect 199 0 67 2;
#X connect 203 0 70 2;
#X connect 204 0 70 1;
#X connect 205 0 70 3;
#X connect 206 0 44 3;
#X connect 207 0 44 2;
#X connect 208 0 44 1;
#X connect 209 0 18 1;
#X connect 210 0 18 2;
#X connect 211 0 18 3;
#X restore 538 66 pd gem;
#X obj 24 78 s pluckNote;
#X floatatom 349 57 5 0 0 0 - - -;
#X obj 349 33 ctlin 0 3;
#X obj 349 80 / 127;
#X obj 349 104 s pot1;
#X floatatom 419 57 5 0 0 0 - - -;
#X obj 419 80 / 127;
#X obj 419 33 ctlin 0 4;
#X floatatom 349 157 5 0 0 0 - - -;
#X obj 349 180 / 127;
#X obj 349 133 ctlin 0 5;
#X obj 419 104 s pot2;
#X obj 349 204 s pot3;
#X floatatom 419 157 5 0 0 0 - - -;
#X obj 419 180 / 127;
#X obj 419 133 ctlin 0 6;
#X obj 419 204 s prox;
#X floatatom 489 157 5 0 0 0 - - -;
#X obj 489 133 ctlin 0 7;
#X obj 489 204 s toggle;
#X obj 489 180 / 127;
#X obj 116 77 sel 1 2 3 4 5 6 7 8 9;
#X obj 219 161 bng 15 250 50 0 empty empty empty 17 7 0 10 -262144
-1 -1;
#X obj 236 171 bng 15 250 50 0 empty empty empty 17 7 0 10 -262144
-1 -1;
#X obj 253 181 bng 15 250 50 0 empty empty empty 17 7 0 10 -262144
-1 -1;
#X obj 222 203 s seven;
#X obj 239 229 s eight;
#X obj 260 254 s nine;
#X obj 349 303 s arpNote;
#X floatatom 349 277 5 0 0 0 - - -;
#X obj 349 253 notein 8;
#X text 204 9 MIDI input from Csound;
#X text 514 36 Gem stuff in here;
#X connect 0 0 1 0;
#X connect 1 0 18 0;
#X connect 2 0 3 0;
#X connect 2 1 4 0;
#X connect 3 0 39 0;
#X connect 5 0 14 0;
#X connect 6 0 15 0;
#X connect 7 0 16 0;
#X connect 8 0 13 0;
#X connect 9 0 12 0;
#X connect 10 0 11 0;
#X connect 19 0 21 0;
#X connect 20 0 19 0;
#X connect 21 0 22 0;
#X connect 23 0 24 0;
#X connect 24 0 29 0;
#X connect 25 0 23 0;
#X connect 26 0 27 0;
#X connect 27 0 30 0;
#X connect 28 0 26 0;
#X connect 31 0 32 0;
#X connect 32 0 34 0;
#X connect 33 0 31 0;
#X connect 35 0 38 0;
#X connect 36 0 35 0;
#X connect 38 0 37 0;
#X connect 39 0 5 0;
#X connect 39 1 6 0;
#X connect 39 2 7 0;
#X connect 39 3 8 0;
#X connect 39 4 9 0;
#X connect 39 5 10 0;
#X connect 39 6 40 0;
#X connect 39 7 41 0;
#X connect 39 8 42 0;
#X connect 40 0 43 0;
#X connect 41 0 44 0;
#X connect 42 0 45 0;
#X connect 47 0 46 0;
#X connect 48 0 47 0;