#N canvas 432 268 598 369 12;
#X declare -lib Gem;
#X obj 24 31 notein 1;
#X floatatom 24 55 5 0 0 0 - - -;
#X obj 116 30 notein 2;
#X floatatom 116 54 5 0 0 0 - - -;
#X floatatom 169 54 5 0 0 0 - - -;
#X obj 116 101 bng 15 250 50 0 empty empty empty 17 7 0 10 -262144
-1 -1;
#X obj 133 111 bng 15 250 50 0 empty empty empty 17 7 0 10 -262144
-1 -1;
#X obj 150 121 bng 15 250 50 0 empty empty empty 17 7 0 10 -262144
-1 -1;
#X obj 167 131 bng 15 250 50 0 empty empty empty 17 7 0 10 -262144
-1 -1;
#X obj 184 141 bng 15 250 50 0 empty empty empty 17 7 0 10 -262144
-1 -1;
#X obj 201 151 bng 15 250 50 0 empty empty empty 17 7 0 10 -262144
-1 -1;
#X obj 201 170 s six;
#X obj 184 230 s five;
#X obj 167 208 s four;
#X obj 116 139 s one;
#X obj 133 161 s two;
#X obj 150 185 s three;
#N canvas 0 23 1440 855 gem 0;
#X obj 741 28 declare -lib Gem;
#X obj 762 114 gemwin;
#X msg 762 59 create \, 1;
#X msg 821 88 destroy;
#X obj 54 110 gemhead;
#X obj 343 78 text2d;
#N canvas 347 180 791 545 text 0;
#X obj 57 35 r one;
#X obj 99 35 r two;
#X obj 141 35 r three;
#X obj 197 35 r four;
#X obj 246 35 r five;
#X obj 295 35 r six;
#X obj 57 59 bng 15 250 50 0 empty empty empty 17 7 0 10 -262144 -1
-1;
#X obj 99 59 bng 15 250 50 0 empty empty empty 17 7 0 10 -262144 -1
-1;
#X obj 141 59 bng 15 250 50 0 empty empty empty 17 7 0 10 -262144 -1
-1;
#X obj 197 59 bng 15 250 50 0 empty empty empty 17 7 0 10 -262144 -1
-1;
#X obj 246 59 bng 15 250 50 0 empty empty empty 17 7 0 10 -262144 -1
-1;
#X obj 295 59 bng 15 250 50 0 empty empty empty 17 7 0 10 -262144 -1
-1;
#X msg 152 104 text i wanna build the wall. we need the wall;
#X msg 291 222 text facts don't care about your feelings;
#X obj 61 313 outlet;
#N canvas 469 312 450 300 sample1 0;
#X obj 48 115 delay 2500;
#X msg 48 139 text you may not be prepared for the real world;
#X obj 26 39 inlet;
#X obj 48 163 outlet;
#X msg 27 81 text if you were born in the eighties or nineties;
#X text 73 29 Bang the first piece of text \, wait a couple seconds
then bang the second piece of text for longer vocal samples;
#X connect 0 0 1 0;
#X connect 1 0 3 0;
#X connect 2 0 4 0;
#X connect 2 0 0 0;
#X connect 4 0 3 0;
#X restore 57 88 pd sample1;
#N canvas 539 202 609 419 sample2 0;
#X obj 58 22 inlet;
#X obj 211 99 delay 2500;
#X msg 211 123 text narcissistic;
#X obj 215 161 delay 4000;
#X msg 215 185 text self interested;
#X obj 217 230 delay 6000;
#X msg 217 254 text unfocused;
#X obj 217 293 delay 7500;
#X msg 58 56 text and they're accused of being entitled;
#X obj 58 80 outlet;
#X msg 217 317 text lazy;
#X text 118 342 Bang the first piece of text \, wait a couple seconds
then bang the second piece of text for longer vocal samples;
#X connect 0 0 8 0;
#X connect 0 0 1 0;
#X connect 0 0 3 0;
#X connect 0 0 5 0;
#X connect 0 0 7 0;
#X connect 1 0 2 0;
#X connect 2 0 9 0;
#X connect 3 0 4 0;
#X connect 4 0 9 0;
#X connect 5 0 6 0;
#X connect 6 0 9 0;
#X connect 7 0 10 0;
#X connect 8 0 9 0;
#X connect 10 0 9 0;
#X restore 100 154 pd sample2;
#N canvas 57 163 450 300 sample4 0;
#X obj 17 30 inlet;
#X msg 17 84 text and frankly if hillary clinton were a man;
#X obj 68 125 delay 3500;
#X msg 68 149 text i don't think she'd get 5% of the vote!;
#X obj 68 173 outlet;
#X text 57 221 Bang the first piece of text \, wait a couple seconds
then bang the second piece of text for longer vocal samples;
#X connect 0 0 1 0;
#X connect 0 0 2 0;
#X connect 1 0 4 0;
#X connect 2 0 3 0;
#X connect 3 0 4 0;
#X restore 202 145 pd sample4;
#N canvas 164 78 649 364 sample5 0;
#X obj 35 38 inlet;
#X obj 35 109 outlet;
#X msg 35 70 text and i don't like the way that a stiff upper lip;
#X obj 113 106 delay 3000;
#X msg 113 130 text manning up;
#X obj 247 107 delay 4000;
#X msg 247 131 text has now become something to;
#X obj 214 173 delay 6000;
#X msg 214 197 text be offensive;
#X connect 0 0 2 0;
#X connect 0 0 3 0;
#X connect 0 0 5 0;
#X connect 0 0 7 0;
#X connect 2 0 1 0;
#X connect 3 0 4 0;
#X connect 4 0 1 0;
#X connect 5 0 6 0;
#X connect 6 0 1 0;
#X connect 7 0 8 0;
#X connect 8 0 1 0;
#X restore 247 183 pd sample5;
#X msg 217 320 text;
#X obj 266 322 loadbang;
#X obj 337 35 r seven;
#X obj 394 35 r eight;
#X obj 453 35 r nine;
#X obj 337 59 bng 15 250 50 0 empty empty empty 17 7 0 10 -262144 -1
-1;
#X obj 394 59 bng 15 250 50 0 empty empty empty 17 7 0 10 -262144 -1
-1;
#X obj 453 59 bng 15 250 50 0 empty empty empty 17 7 0 10 -262144 -1
-1;
#X msg 339 189 text millenials don't get off the couch very often;
#N canvas 261 182 555 368 sample8 0;
#X obj 37 37 inlet;
#X msg 20 125 text because the thing that forms your shape is your
mind;
#X obj 108 148 delay 3500;
#X obj 108 196 outlet;
#X msg 108 172 text and its interaction with the world that surrounds
you;
#X text 50 252 Bang the first piece of text \, wait a couple seconds
then bang the second piece of text for longer vocal samples;
#X connect 0 0 1 0;
#X connect 0 0 2 0;
#X connect 1 0 3 0;
#X connect 2 0 4 0;
#X connect 4 0 3 0;
#X restore 392 251 pd sample8;
#X msg 453 79 text nobody understands me;
#X text 65 380 Depending which sample number is on \, respective subtitles
are displayed. Some of these are short \, but some are longer so we
display the text piece by piece.;
#X connect 0 0 6 0;
#X connect 1 0 7 0;
#X connect 2 0 8 0;
#X connect 3 0 9 0;
#X connect 4 0 10 0;
#X connect 5 0 11 0;
#X connect 6 0 15 0;
#X connect 7 0 16 0;
#X connect 8 0 12 0;
#X connect 9 0 17 0;
#X connect 10 0 18 0;
#X connect 11 0 13 0;
#X connect 12 0 14 0;
#X connect 13 0 14 0;
#X connect 15 0 14 0;
#X connect 16 0 14 0;
#X connect 17 0 14 0;
#X connect 18 0 14 0;
#X connect 19 0 14 0;
#X connect 20 0 19 0;
#X connect 21 0 24 0;
#X connect 22 0 25 0;
#X connect 23 0 26 0;
#X connect 24 0 27 0;
#X connect 25 0 28 0;
#X connect 26 0 29 0;
#X connect 27 0 14 0;
#X connect 28 0 14 0;
#X connect 29 0 14 0;
#X restore 470 51 pd text;
#X obj 95 253 colourRGB;
#X obj 95 371 cube;
#X obj 439 200 r pluckNote;
#X floatatom 439 224 5 0 0 0 - - -;
#X obj 54 15 tgl 15 0 metro empty empty 17 7 0 10 -262144 -1 -1 0 1
;
#X obj 54 68 t b b;
#X obj 343 50 colorRGB 1 1 1 1;
#X obj 343 25 translateXYZ 0 0 0;
#X obj 95 276 alpha;
#X obj 95 300 depth;
#X obj 95 324 rotateXYZ;
#X obj 144 62 i;
#X floatatom 144 86 5 0 0 0 - - -;
#X obj 185 61 + 1;
#X obj 224 62 % 360;
#X obj 186 86 * 2;
#X obj 115 86 * 3;
#X obj 95 348 translateXYZ 2 3 1;
#X msg 187 403 draw fill;
#X msg 187 429 draw line;
#X msg 187 451 draw point;
#X obj 440 247 bng 15 250 50 0 random empty empty 17 7 0 10 -262144
-1 -1;
#X obj 439 294 / 100;
#X obj 439 269 random 101;
#X obj 519 294 / 100;
#X obj 519 269 random 101;
#X obj 599 294 / 100;
#X obj 599 269 random 101;
#X obj 439 389 bng 15 250 50 0 empty empty empty 17 7 0 10 -262144
-1 -1;
#X obj 461 389 bng 15 250 50 0 empty empty empty 17 7 0 10 -262144
-1 -1;
#X obj 483 389 bng 15 250 50 0 empty empty empty 17 7 0 10 -262144
-1 -1;
#X obj 778 219 colourRGB;
#X obj 778 246 alpha;
#X obj 778 270 depth;
#X obj 778 294 rotateXYZ;
#X obj 778 318 translateXYZ -1 -1 -0.5;
#X msg 768 414 draw fill;
#X msg 768 445 draw line;
#X msg 770 475 draw point;
#X obj 778 340 sphere;
#X floatatom 955 319 5 0 0 0 - - -;
#X obj 955 271 random 201;
#X obj 955 295 / 100;
#X obj 1043 271 random 6;
#X obj 1043 295 + 5;
#X obj 875 219 random 12;
#X obj 945 219 random 12;
#X obj 1015 218 random 12;
#X obj 875 243 - 6;
#X obj 945 243 - 6;
#X obj 1015 243 - 6;
#X obj 193 278 random 12;
#X obj 263 278 random 12;
#X obj 333 277 random 12;
#X obj 193 301 - 6;
#X obj 263 302 - 6;
#X obj 333 302 - 6;
#X obj 390 525 colourRGB;
#X obj 390 549 alpha;
#X obj 390 573 depth;
#X obj 390 597 rotateXYZ;
#X obj 390 620 translateXYZ 2 3 1;
#X obj 464 571 random 12;
#X obj 534 571 random 12;
#X obj 606 572 random 12;
#X obj 464 594 - 6;
#X obj 534 595 - 6;
#X obj 604 595 - 6;
#X obj 390 644 sphere;
#X floatatom 534 672 5 0 0 0 - - -;
#X obj 534 624 random 201;
#X obj 534 648 / 100;
#X obj 622 624 random 6;
#X obj 622 648 + 5;
#X obj 792 671 colourRGB;
#X obj 792 792 cube;
#X obj 792 695 alpha;
#X obj 792 719 depth;
#X obj 792 743 rotateXYZ;
#X obj 792 767 translateXYZ 2 3 1;
#X obj 863 720 random 12;
#X obj 933 720 random 12;
#X obj 1003 719 random 12;
#X obj 863 743 - 6;
#X obj 933 744 - 6;
#X obj 1003 744 - 6;
#X obj 902 26 r pot1;
#X obj 117 651 colourRGB;
#X obj 117 675 alpha;
#X obj 117 699 depth;
#X msg 205 640 draw line;
#X obj 117 723 rotateXYZ;
#X obj 117 747 sphere 20 10;
#X obj 206 609 loadbang;
#X obj 494 224 loadbang;
#X obj 902 50 / 2;
#X obj 952 50 / 2;
#X obj 1002 50 / 2;
#X obj 952 26 r pot2;
#X obj 1002 26 r pot3;
#X obj 902 104 pack 0 0 0;
#X msg 902 130 color \$1 \$2 \$3;
#X obj 1034 408 gemhead;
#X obj 1034 432 pix_video;
#X obj 1034 456 pix_threshold;
#X obj 1034 480 pix_texture;
#X obj 1034 504 colorRGB;
#X obj 1034 606 rectangle 2 1.5;
#X obj 1147 380 hsl 128 15 0 1 0 0 empty empty empty -2 -8 0 10 -262144
-1 -1 1441 1;
#X obj 1034 528 alpha;
#X obj 975 435 r pot1;
#X obj 976 458 r pot2;
#X obj 976 483 r pot3;
#X obj 1034 582 translateXYZ;
#X obj 1256 526 bng 15 250 50 0 empty random empty 17 7 0 10 -262144
-1 -1;
#X obj 1164 550 random 8;
#X obj 1234 549 random 8;
#X obj 1304 548 random 8;
#X obj 1164 573 - 4;
#X obj 1234 573 - 4;
#X obj 1304 573 - 4;
#X msg 1257 619 0;
#X obj 1145 359 / 127;
#X obj 1145 335 lfo 0.05;
#X obj 117 624 gemhead;
#X obj 1121 655 r prox;
#X floatatom 1121 679 5 0 0 0 - - -;
#X obj 1144 400 cyclone/scale 0 1 0.4 0.7;
#X obj 1247 707 bng 15 250 50 0 empty metro empty 17 7 0 10 -262144
-1 -1;
#X obj 1034 552 rotateXYZ;
#X obj 1199 741 * 2;
#X obj 1247 659 tgl 15 0 empty metro empty 17 7 0 10 -262144 -1 -1
0 1;
#X obj 1247 679 metro 100;
#X obj 1247 727 random 5;
#X obj 1247 757 random 5;
#X obj 1247 786 random 5;
#X obj 1199 187 r toggle;
#X floatatom 1199 211 5 0 0 0 - - -;
#X obj 902 74 *;
#X obj 952 74 *;
#X obj 1002 74 *;
#X obj 1317 629 r toggle;
#X floatatom 1317 653 5 0 0 0 - - -;
#X obj 131 15 r toggle;
#X floatatom 131 39 5 0 0 0 - - -;
#X obj 218 660 tgl 15 0 empty empty empty 17 7 0 10 -262144 -1 -1 0
1;
#X obj 218 680 metro 100;
#X obj 218 704 t b b;
#X obj 218 732 i;
#X floatatom 218 757 5 0 0 0 - - -;
#X obj 218 779 * 3;
#X obj 254 779 * 2;
#X obj 256 733 + 1;
#X obj 292 733 % 360;
#X obj 1136 30 r arpNote;
#X floatatom 1136 54 5 0 0 0 - - -;
#X obj 1136 77 bng 15 250 50 0 random empty empty 17 7 0 10 -262144
-1 -1;
#X obj 1136 97 random 101;
#X obj 1216 97 random 101;
#X obj 1296 97 random 101;
#X obj 1136 121 / 200;
#X obj 1216 121 / 200;
#X obj 1296 121 / 200;
#X obj 54 35 metro 30;
#X obj 1121 702 * 8;
#X obj 1153 704 * 6;
#X obj 439 342 counter 2;
#X obj 439 365 sel 0 1 2;
#X obj 936 659 bng 15 250 50 0 empty random empty 17 7 0 10 -262144
-1 -1;
#X obj 1092 243 bng 15 250 50 0 empty random empty 17 7 0 10 -262144
-1 -1;
#X obj 542 530 bng 15 250 50 0 empty random empty 17 7 0 10 -262144
-1 -1;
#X obj 271 250 bng 15 250 50 0 empty random empty 17 7 0 10 -262144
-1 -1;
#X obj 519 318 s rgb2;
#X obj 439 318 s rgb1;
#X obj 599 318 s rgb3;
#X obj 791 630 r rgb1;
#X obj 841 630 r rgb2;
#X obj 891 630 r rgb3;
#X obj 390 498 r rgb1;
#X obj 440 498 r rgb2;
#X obj 490 498 r rgb3;
#X obj 778 193 r rgb1;
#X obj 828 193 r rgb2;
#X obj 878 193 r rgb3;
#X obj 96 228 r rgb1;
#X obj 146 228 r rgb2;
#X obj 196 228 r rgb3;
#X obj 115 110 s xyz1;
#X obj 164 110 s xyz2;
#X obj 208 110 s xyz3;
#X obj 340 525 r xyz1;
#X obj 340 549 r xyz2;
#X obj 340 573 r xyz3;
#X obj 742 671 r xyz1;
#X obj 742 695 r xyz2;
#X obj 742 719 r xyz3;
#X obj 730 222 r xyz1;
#X obj 730 246 r xyz2;
#X obj 730 270 r xyz3;
#X obj 42 252 r xyz1;
#X obj 42 276 r xyz2;
#X obj 42 300 r xyz3;
#X msg 672 68 fullscreen 1;
#X obj 1199 234 bng 15 250 50 0 empty empty empty 17 7 0 10 -262144
-1 -1;
#X obj 1199 254 delay 50;
#X text 339 2 Text for subtitles to samples;
#X text 630 101 Create Gem window in fullscreen;
#X text 971 3 Use pots and Arp notes to change background colour;
#X text 433 164 Randomise colours \, positions \, and style of shapes
when the pluck plays a note;
#X text 293 769 Large sphere that moves slower looks like a 'container'
for everything else;
#X text 343 455 Two cubes and two spheres that fly around the scene
;
#X text 1182 153 Toggle makes the background black when the lamp is
off;
#X text 126 134 Metro creates degrees to rotate the shapes \, and bangs
the gemheads to refresh them. Turned on and off by the lamp;
#X text 1140 428 Webcam footage that has its opacity slowly modulated
and its size controlled by proximity sensor. Its position is also randomised
by the pluck \, and its colour adjusted by the pots. It shakes at random
\, this is turned on and off by the lamp.;
#X connect 2 0 1 0;
#X connect 3 0 1 0;
#X connect 4 0 14 0;
#X connect 4 0 7 0;
#X connect 4 0 38 0;
#X connect 4 0 64 0;
#X connect 4 0 81 0;
#X connect 6 0 5 0;
#X connect 7 0 15 0;
#X connect 9 0 10 0;
#X connect 10 0 28 0;
#X connect 11 0 170 0;
#X connect 12 0 4 0;
#X connect 12 1 18 0;
#X connect 13 0 5 0;
#X connect 14 0 13 0;
#X connect 15 0 16 0;
#X connect 16 0 17 0;
#X connect 17 0 24 0;
#X connect 18 0 19 0;
#X connect 18 0 20 0;
#X connect 19 0 22 0;
#X connect 19 0 23 0;
#X connect 19 0 195 0;
#X connect 20 0 21 0;
#X connect 21 0 18 1;
#X connect 22 0 196 0;
#X connect 23 0 194 0;
#X connect 24 0 8 0;
#X connect 25 0 8 0;
#X connect 25 0 75 0;
#X connect 26 0 8 0;
#X connect 26 0 75 0;
#X connect 27 0 8 0;
#X connect 27 0 75 1;
#X connect 28 0 30 0;
#X connect 28 0 32 0;
#X connect 28 0 34 0;
#X connect 28 0 173 0;
#X connect 29 0 180 0;
#X connect 30 0 29 0;
#X connect 31 0 179 0;
#X connect 32 0 31 0;
#X connect 33 0 181 0;
#X connect 34 0 33 0;
#X connect 35 0 25 0;
#X connect 35 0 44 0;
#X connect 36 0 26 0;
#X connect 36 0 45 0;
#X connect 37 0 27 0;
#X connect 37 0 43 0;
#X connect 38 0 39 0;
#X connect 39 0 40 0;
#X connect 40 0 41 0;
#X connect 41 0 42 0;
#X connect 42 0 46 0;
#X connect 43 0 46 0;
#X connect 43 0 82 0;
#X connect 44 0 46 0;
#X connect 44 0 82 0;
#X connect 45 0 46 0;
#X connect 45 0 82 0;
#X connect 47 0 46 1;
#X connect 48 0 49 0;
#X connect 49 0 47 0;
#X connect 50 0 51 0;
#X connect 51 0 46 2;
#X connect 52 0 55 0;
#X connect 53 0 56 0;
#X connect 54 0 57 0;
#X connect 55 0 42 1;
#X connect 56 0 42 2;
#X connect 57 0 42 3;
#X connect 58 0 61 0;
#X connect 59 0 62 0;
#X connect 60 0 63 0;
#X connect 61 0 24 1;
#X connect 62 0 24 2;
#X connect 63 0 24 3;
#X connect 64 0 65 0;
#X connect 65 0 66 0;
#X connect 66 0 67 0;
#X connect 67 0 68 0;
#X connect 68 0 75 0;
#X connect 69 0 72 0;
#X connect 70 0 73 0;
#X connect 71 0 74 0;
#X connect 72 0 68 1;
#X connect 73 0 68 2;
#X connect 74 0 68 3;
#X connect 76 0 75 1;
#X connect 77 0 78 0;
#X connect 78 0 76 0;
#X connect 79 0 80 0;
#X connect 80 0 75 2;
#X connect 81 0 83 0;
#X connect 83 0 84 0;
#X connect 84 0 85 0;
#X connect 85 0 86 0;
#X connect 86 0 82 0;
#X connect 87 0 90 0;
#X connect 88 0 91 0;
#X connect 89 0 92 0;
#X connect 90 0 86 1;
#X connect 91 0 86 2;
#X connect 92 0 86 3;
#X connect 93 0 102 0;
#X connect 94 0 95 0;
#X connect 95 0 96 0;
#X connect 96 0 98 0;
#X connect 97 0 99 0;
#X connect 98 0 99 0;
#X connect 100 0 97 0;
#X connect 101 0 28 0;
#X connect 102 0 145 0;
#X connect 103 0 146 0;
#X connect 104 0 107 2;
#X connect 104 0 147 0;
#X connect 105 0 103 0;
#X connect 106 0 104 0;
#X connect 107 0 108 0;
#X connect 108 0 1 0;
#X connect 109 0 110 0;
#X connect 110 0 111 0;
#X connect 111 0 112 0;
#X connect 112 0 113 0;
#X connect 113 0 116 0;
#X connect 115 0 134 0;
#X connect 116 0 136 0;
#X connect 117 0 113 3;
#X connect 118 0 113 1;
#X connect 119 0 113 2;
#X connect 120 0 114 0;
#X connect 121 0 122 0;
#X connect 121 0 123 0;
#X connect 121 0 124 0;
#X connect 122 0 125 0;
#X connect 123 0 126 0;
#X connect 124 0 127 0;
#X connect 125 0 120 1;
#X connect 126 0 120 2;
#X connect 127 0 120 3;
#X connect 128 0 120 1;
#X connect 128 0 120 2;
#X connect 128 0 120 3;
#X connect 128 0 136 1;
#X connect 128 0 136 2;
#X connect 128 0 136 3;
#X connect 129 0 115 0;
#X connect 130 0 129 0;
#X connect 131 0 94 0;
#X connect 132 0 133 0;
#X connect 133 0 171 0;
#X connect 133 0 172 0;
#X connect 134 0 113 4;
#X connect 135 0 140 0;
#X connect 135 0 141 0;
#X connect 135 0 142 0;
#X connect 136 0 120 0;
#X connect 137 0 136 2;
#X connect 138 0 139 0;
#X connect 139 0 135 0;
#X connect 140 0 136 1;
#X connect 141 0 136 2;
#X connect 142 0 136 3;
#X connect 143 0 144 0;
#X connect 144 0 210 0;
#X connect 144 0 145 1;
#X connect 144 0 146 1;
#X connect 144 0 147 1;
#X connect 145 0 107 0;
#X connect 146 0 107 1;
#X connect 147 0 107 2;
#X connect 148 0 149 0;
#X connect 149 0 138 0;
#X connect 150 0 151 0;
#X connect 151 0 11 0;
#X connect 152 0 153 0;
#X connect 153 0 154 0;
#X connect 154 1 155 0;
#X connect 155 0 156 0;
#X connect 155 0 159 0;
#X connect 156 0 157 0;
#X connect 156 0 158 0;
#X connect 156 0 98 3;
#X connect 157 0 98 1;
#X connect 158 0 98 2;
#X connect 159 0 160 0;
#X connect 160 0 155 1;
#X connect 161 0 162 0;
#X connect 162 0 163 0;
#X connect 163 0 164 0;
#X connect 164 0 167 0;
#X connect 165 0 168 0;
#X connect 166 0 169 0;
#X connect 167 0 107 0;
#X connect 168 0 107 1;
#X connect 169 0 107 2;
#X connect 170 0 12 0;
#X connect 170 0 107 0;
#X connect 171 0 114 1;
#X connect 172 0 114 2;
#X connect 173 0 174 0;
#X connect 174 0 35 0;
#X connect 174 1 36 0;
#X connect 174 2 37 0;
#X connect 175 0 87 0;
#X connect 175 0 88 0;
#X connect 175 0 89 0;
#X connect 176 0 52 0;
#X connect 176 0 53 0;
#X connect 176 0 54 0;
#X connect 176 0 50 0;
#X connect 176 0 48 0;
#X connect 177 0 69 0;
#X connect 177 0 70 0;
#X connect 177 0 71 0;
#X connect 177 0 77 0;
#X connect 177 0 79 0;
#X connect 178 0 58 0;
#X connect 178 0 59 0;
#X connect 178 0 60 0;
#X connect 182 0 81 3;
#X connect 183 0 81 2;
#X connect 184 0 81 1;
#X connect 185 0 64 3;
#X connect 186 0 64 1;
#X connect 187 0 64 2;
#X connect 188 0 38 1;
#X connect 189 0 38 3;
#X connect 190 0 38 2;
#X connect 191 0 7 3;
#X connect 192 0 7 2;
#X connect 193 0 7 1;
#X connect 197 0 67 2;
#X connect 198 0 67 1;
#X connect 199 0 67 3;
#X connect 200 0 85 1;
#X connect 201 0 85 3;
#X connect 202 0 85 2;
#X connect 203 0 41 3;
#X connect 204 0 41 1;
#X connect 205 0 41 2;
#X connect 206 0 17 1;
#X connect 207 0 17 2;
#X connect 208 0 17 3;
#X connect 209 0 1 0;
#X connect 210 0 211 0;
#X connect 211 0 107 0;
#X restore 494 41 pd gem;
#X obj 24 78 s pluckNote;
#X floatatom 349 67 5 0 0 0 - - -;
#X obj 349 43 ctlin 0 3;
#X obj 349 90 / 127;
#X obj 349 114 s pot1;
#X floatatom 419 67 5 0 0 0 - - -;
#X obj 419 90 / 127;
#X obj 419 43 ctlin 0 4;
#X floatatom 349 167 5 0 0 0 - - -;
#X obj 349 190 / 127;
#X obj 349 143 ctlin 0 5;
#X obj 419 114 s pot2;
#X obj 349 214 s pot3;
#X floatatom 419 167 5 0 0 0 - - -;
#X obj 419 190 / 127;
#X obj 419 143 ctlin 0 6;
#X obj 419 214 s prox;
#X floatatom 489 167 5 0 0 0 - - -;
#X obj 489 143 ctlin 0 7;
#X obj 489 214 s toggle;
#X obj 489 190 / 127;
#X obj 25 107 notein 8;
#X floatatom 25 131 5 0 0 0 - - -;
#X obj 25 154 s arpNote;
#X obj 116 77 sel 1 2 3 4 5 6 7 8 9;
#X obj 220 162 bng 15 250 50 0 empty empty empty 17 7 0 10 -262144
-1 -1;
#X obj 237 172 bng 15 250 50 0 empty empty empty 17 7 0 10 -262144
-1 -1;
#X obj 254 182 bng 15 250 50 0 empty empty empty 17 7 0 10 -262144
-1 -1;
#X obj 220 207 s seven;
#X obj 237 256 s eight;
#X obj 255 231 s nine;
#X text 122 296 MIDI input from Csound \, note values from the pluck
\, arp \, and sample instruments (no. of sample) \, then control changes
from the sensors;
#X text 455 13 Gem stuff in here;
#X connect 0 0 1 0;
#X connect 1 0 18 0;
#X connect 2 0 3 0;
#X connect 2 1 4 0;
#X connect 3 0 42 0;
#X connect 5 0 14 0;
#X connect 6 0 15 0;
#X connect 7 0 16 0;
#X connect 8 0 13 0;
#X connect 9 0 12 0;
#X connect 10 0 11 0;
#X connect 19 0 21 0;
#X connect 20 0 19 0;
#X connect 21 0 22 0;
#X connect 23 0 24 0;
#X connect 24 0 29 0;
#X connect 25 0 23 0;
#X connect 26 0 27 0;
#X connect 27 0 30 0;
#X connect 28 0 26 0;
#X connect 31 0 32 0;
#X connect 32 0 34 0;
#X connect 33 0 31 0;
#X connect 35 0 38 0;
#X connect 36 0 35 0;
#X connect 38 0 37 0;
#X connect 39 0 40 0;
#X connect 40 0 41 0;
#X connect 42 0 5 0;
#X connect 42 1 6 0;
#X connect 42 2 7 0;
#X connect 42 3 8 0;
#X connect 42 4 9 0;
#X connect 42 5 10 0;
#X connect 42 6 43 0;
#X connect 42 7 44 0;
#X connect 42 8 45 0;
#X connect 43 0 46 0;
#X connect 44 0 47 0;
#X connect 45 0 48 0;
